<svg width="122" height="21" viewBox="64 -1 122 21" fill="none" xmlns="http://www.w3.org/2000/svg">
  <path d="M66.2858 15V3.36361H70.8767C71.7593 3.36361 72.5112 3.53217 73.1324 3.86929C73.7536 4.20262 74.2271 4.66664 74.5528 5.26133C74.8824 5.85224 75.0471 6.53406 75.0471 7.30679C75.0471 8.07951 74.8805 8.76133 74.5471 9.35224C74.2138 9.94315 73.7309 10.4034 73.0983 10.7329C72.4695 11.0625 71.7081 11.2272 70.8142 11.2272H67.8881V9.25565H70.4165C70.8899 9.25565 71.2801 9.17421 71.5869 9.01133C71.8975 8.84467 72.1286 8.6155 72.2801 8.32383C72.4354 8.02838 72.5131 7.68936 72.5131 7.30679C72.5131 6.92042 72.4354 6.5833 72.2801 6.29542C72.1286 6.00376 71.8975 5.77838 71.5869 5.61929C71.2763 5.45641 70.8824 5.37497 70.4051 5.37497H68.746V15H66.2858ZM77.3071 15H74.6707L78.6878 3.36361H81.8582L85.8696 15H83.2332L80.3184 6.0227H80.2275L77.3071 15ZM77.1423 10.4261H83.3696V12.3466H77.1423V10.4261ZM85.4008 3.36361H88.1565L90.8099 8.37497H90.9236L93.577 3.36361H96.3327L92.0883 10.8863V15H89.6452V10.8863L85.4008 3.36361Z" fill="white" />
  <path fill-rule="evenodd" clip-rule="evenodd" d="M106.149 13.8617L106.146 13.8662L106.143 13.8707C105.965 14.1227 105.566 14.1968 105.254 13.9765C105.004 13.8002 104.929 13.4074 105.142 13.097C105.459 12.6927 105.689 12.2201 105.841 11.758C105.998 11.277 106.071 10.7305 106.069 10.1944C106.066 9.65837 105.987 9.11261 105.824 8.63332C105.668 8.17294 105.433 7.7028 105.111 7.30194C104.895 6.99376 104.966 6.60016 105.214 6.42122C105.523 6.19768 105.923 6.26749 106.103 6.5176L106.107 6.52209L106.11 6.5265C106.51 7.05404 106.838 7.64017 107.034 8.21523C107.241 8.8917 107.372 9.54607 107.376 10.1875C107.379 10.8624 107.315 11.5013 107.067 12.1302C106.797 12.8151 106.536 13.34 106.149 13.8617ZM109.042 15.1145L109.049 15.1034L109.057 15.0919C109.943 13.6713 110.455 11.957 110.445 10.1711C110.436 8.38569 109.906 6.67737 109.005 5.26645C108.81 4.95669 108.897 4.59044 109.227 4.3526C109.448 4.19287 109.863 4.24943 110.109 4.57952C111.127 6.19415 111.742 8.14599 111.752 10.1642C111.763 12.2512 111.17 14.1397 110.169 15.7661C109.937 16.085 109.582 16.1743 109.277 15.9936C108.945 15.7507 108.885 15.337 109.042 15.1145ZM114.232 2.45723L114.241 2.47448L114.251 2.49097C115.63 4.73918 116.396 7.33242 116.411 10.1394C116.426 12.945 115.688 15.5451 114.335 17.8072C114.127 18.1409 113.777 18.235 113.421 18.0697C113.098 17.859 113.011 17.5098 113.18 17.1571C114.332 15.1124 115.047 12.703 115.034 10.1467C115.02 7.60175 114.355 5.19617 113.103 3.15136C112.934 2.80221 113.018 2.45448 113.337 2.24136C113.723 2.05724 114.098 2.1922 114.232 2.45723ZM118.315 0.317655L118.321 0.32944L118.328 0.340875C119.999 3.2294 120.981 6.53184 121 10.1149C121.019 13.6943 120.074 17.0039 118.437 19.9079C118.229 20.2378 117.881 20.3302 117.527 20.1656C117.205 19.9556 117.117 19.6079 117.284 19.2564C118.861 16.5648 119.711 13.4463 119.693 10.1219C119.675 6.78886 118.718 3.6825 117.189 1.0174C116.997 0.628348 117.132 0.247314 117.4 0.111823C117.792 -0.0870519 118.179 0.0479481 118.315 0.317655Z" fill="white" />
</svg>